<svg xmlns="http://www.w3.org/2000/svg" xmlns:xlink="http://www.w3.org/1999/xlink" zoomAndPan="magnify" preserveAspectRatio="xMidYMid meet" version="1.0" viewBox="-37.5 -37.5 450 450"><defs><g/></defs><rect x="-37.5" width="450" fill="#ffffff" y="-37.499999" height="449.999989" fill-opacity="1"/><rect x="-37.5" width="450" fill="#592ead" y="-37.499999" height="449.999989" fill-opacity="1"/><g fill="#ffffff" fill-opacity="1"><g transform="translate(75.891103, 236.249984)"><g><path d="M 10.796875 0 L 10.796875 -92.34375 L 42.65625 -92.34375 L 42.65625 -82.625 L 43.015625 -82.625 C 51.296875 -90.90625 60.117188 -95.046875 69.484375 -95.046875 C 76.203125 -95.046875 82.5 -93.664062 88.375 -90.90625 C 94.257812 -88.144531 98.703125 -83.882812 101.703125 -78.125 C 111.054688 -89.40625 121.253906 -95.046875 132.296875 -95.046875 C 142.140625 -95.046875 150.597656 -92.285156 157.671875 -86.765625 C 164.753906 -81.242188 168.296875 -72.601562 168.296875 -60.84375 L 168.296875 0 L 136.4375 0 L 136.4375 -52.203125 C 136.4375 -57.117188 135.085938 -61.226562 132.390625 -64.53125 C 129.691406 -67.832031 125.640625 -69.484375 120.234375 -69.484375 C 115.554688 -69.484375 111.988281 -68.070312 109.53125 -65.25 C 107.070312 -62.425781 105.722656 -59.035156 105.484375 -55.078125 L 105.484375 0 L 73.625 0 L 73.625 -52.203125 C 73.625 -57.117188 72.269531 -61.226562 69.5625 -64.53125 C 66.863281 -67.832031 62.816406 -69.484375 57.421875 -69.484375 C 52.503906 -69.484375 48.8125 -67.953125 46.34375 -64.890625 C 43.882812 -61.828125 42.65625 -58.195312 42.65625 -54 L 42.65625 0 Z M 10.796875 0 "/></g></g></g><g fill="#ffffff" fill-opacity="1"><g transform="translate(236.270185, 236.249984)"><g><path d="M 31.3125 -38.515625 C 37.070312 -38.515625 41.960938 -36.503906 45.984375 -32.484375 C 50.003906 -28.460938 52.015625 -23.570312 52.015625 -17.8125 C 52.015625 -12.175781 50.003906 -7.347656 45.984375 -3.328125 C 41.960938 0.691406 37.070312 2.703125 31.3125 2.703125 C 25.675781 2.703125 20.847656 0.691406 16.828125 -3.328125 C 12.804688 -7.347656 10.796875 -12.175781 10.796875 -17.8125 C 10.796875 -23.570312 12.804688 -28.460938 16.828125 -32.484375 C 20.847656 -36.503906 25.675781 -38.515625 31.3125 -38.515625 Z M 31.3125 -38.515625 "/></g></g></g></svg>